# xmcd
#
# Track frame offsets: 
#        150
#        20325
#        36000
#        53230
#        69070
#        86692
#        103260
#        121275
#        139637
#        158410
#        175977
#        195312
#
# Disc length: 2825 seconds
#
# Revision: 3
# Processed by: cddbd v1.5PL3 Copyright (c) Steve Scherf et al.
# Submitted via: ExactAudioCopy v0.95a3
#
DISCID=900b070c,9f0b070c
DTITLE=Pam Tillis - Thunder and Roses
DYEAR=2001
DGENRE=Country
TTITLE0=Jagged Hearts
TTITLE1=Space
TTITLE2=It Isn't Just Raining
TTITLE3=Please
TTITLE4=Tryin'
TTITLE5=Thunder And Roses
TTITLE6=Which Five Years
TTITLE7=Be A Man
TTITLE8=Off-White
TTITLE9=I Smile
TTITLE10=If I Didn't Love You
TTITLE11=Waiting On The Wind (Duet With Mel Tillis)
EXTD=
EXTT0=
EXTT1=
EXTT2=
EXTT3=
EXTT4=
EXTT5=
EXTT6=
EXTT7=
EXTT8=
EXTT9=
EXTT10=
EXTT11=
PLAYORDER=
